<?xml version="1.0" encoding="UTF-8" standalone="no"?>
<svg
   width="75.323997"
   height="106.67892"
   viewBox="0 0 19.929474 28.225465"
   version="1.1"
   id="svg8"
   inkscape:export-filename="ace-of-spade.png"
   inkscape:export-xdpi="144"
   inkscape:export-ydpi="144"
   inkscape:version="1.2.2 (732a01da63, 2022-12-09)"
   sodipodi:docname="Board_Icones.svg"
   xml:space="preserve"
   xmlns:inkscape="http://www.inkscape.org/namespaces/inkscape"
   xmlns:sodipodi="http://sodipodi.sourceforge.net/DTD/sodipodi-0.dtd"
   xmlns="http://www.w3.org/2000/svg"
   xmlns:svg="http://www.w3.org/2000/svg"
   xmlns:rdf="http://www.w3.org/1999/02/22-rdf-syntax-ns#"
   xmlns:cc="http://creativecommons.org/ns#"
   xmlns:dc="http://purl.org/dc/elements/1.1/"><defs
     id="defs2"><linearGradient
       id="linearGradient27525"
       inkscape:swatch="solid"><stop
         style="stop-color:#000000;stop-opacity:1;"
         offset="0"
         id="stop27523" /></linearGradient><linearGradient
       id="linearGradient3360"
       inkscape:swatch="solid"><stop
         style="stop-color:#000000;stop-opacity:1;"
         offset="0"
         id="stop3358" /></linearGradient></defs><sodipodi:namedview
     id="base"
     pagecolor="#ffffff"
     bordercolor="#666666"
     borderopacity="1.0"
     inkscape:pageopacity="0.0"
     inkscape:pageshadow="2"
     inkscape:zoom="1.2177734"
     inkscape:cx="-1819.7145"
     inkscape:cy="1129.1099"
     inkscape:document-units="px"
     inkscape:current-layer="layer1"
     inkscape:document-rotation="0"
     showgrid="false"
     units="px"
     inkscape:snap-bbox="false"
     inkscape:snap-page="true"
     inkscape:snap-global="false"
     inkscape:window-width="1920"
     inkscape:window-height="986"
     inkscape:window-x="-11"
     inkscape:window-y="-11"
     inkscape:window-maximized="1"
     showborder="false"
     inkscape:pagecheckerboard="0"
     showguides="false"
     inkscape:lockguides="true"
     inkscape:showpageshadow="0"
     inkscape:deskcolor="#d1d1d1"><sodipodi:guide
       position="7.6729164,-186.00209"
       orientation="0,-1"
       id="guide19283"
       inkscape:locked="true" /><sodipodi:guide
       position="7.6729164,-188.84636"
       orientation="1,0"
       id="guide19335"
       inkscape:locked="true" /><sodipodi:guide
       position="-8.0863279,-182.19871"
       orientation="1,0"
       id="guide21083"
       inkscape:locked="true" /><sodipodi:guide
       position="-7.8713539,-181.1073"
       orientation="0,-1"
       id="guide21085"
       inkscape:locked="true" /><sodipodi:guide
       position="-5.6554686,-176.04714"
       orientation="0,-1"
       id="guide21473"
       inkscape:locked="true" /><sodipodi:guide
       position="22.263551,-202.87383"
       orientation="1,0"
       id="guide48855"
       inkscape:locked="true" /><inkscape:grid
       type="xygrid"
       id="grid15247" /></sodipodi:namedview><metadata
     id="metadata5"><rdf:RDF><cc:Work
         rdf:about=""><dc:format>image/svg+xml</dc:format><dc:type
           rdf:resource="http://purl.org/dc/dcmitype/StillImage" /></cc:Work></rdf:RDF></metadata><g
     inkscape:label="Calque 1"
     inkscape:groupmode="layer"
     id="layer1"
     transform="translate(485.07533,-271.84679)"><g
       id="g12202"
       transform="translate(-544.26722,-40.699579)"><rect
         style="fill:#000000;stroke-width:0.267615"
         id="rect10099-8-2-9-4"
         width="19.929476"
         height="28.225485"
         x="59.191875"
         y="312.54636"
         ry="2.0161057" /><g
         id="g11837"><rect
           style="fill:#f2f2f2;stroke-width:0.264583"
           id="rect10099-3"
           width="19.664873"
           height="27.960989"
           x="59.324181"
           y="312.67862"
           ry="1.9972128" /><text
           xml:space="preserve"
           style="font-style:normal;font-variant:normal;font-weight:bold;font-stretch:normal;font-size:3.43466px;font-family:'Century Gothic';-inkscape-font-specification:'Century Gothic, Bold';font-variant-ligatures:normal;font-variant-caps:normal;font-variant-numeric:normal;font-variant-east-asian:normal;fill:#000000;stroke-width:0.0352118"
           x="63.95079"
           y="297.77243"
           id="text10177-8"
           transform="scale(0.94280902,1.0606602)"><tspan
             sodipodi:role="line"
             id="tspan10175-7"
             style="fill:#000000;stroke-width:0.0352118"
             x="63.95079"
             y="297.77243">A</tspan></text><text
           xml:space="preserve"
           style="font-style:normal;font-variant:normal;font-weight:bold;font-stretch:normal;font-size:3.43466px;font-family:'Century Gothic';-inkscape-font-specification:'Century Gothic, Bold';font-variant-ligatures:normal;font-variant-caps:normal;font-variant-numeric:normal;font-variant-east-asian:normal;fill:#000000;stroke-width:0.0352118"
           x="-82.7444"
           y="-318.19623"
           id="text10177-0-2"
           transform="scale(-0.94280902,-1.0606602)"><tspan
             sodipodi:role="line"
             id="tspan10175-1-4"
             style="fill:#000000;stroke-width:0.0352118"
             x="-82.7444"
             y="-318.19623">A</tspan></text><path
           style="fill:#000000;stroke-width:0.0471977"
           d="m 67.377136,332.19978 c -0.293324,-0.14924 -0.42091,-0.61073 -0.256231,-0.92681 0.136108,-0.26123 0.418156,-0.37569 0.925792,-0.37569 h 0.41686 v -0.82184 c 0,-0.45201 -0.01302,-0.82183 -0.02893,-0.82183 -0.01591,0 -0.140761,0.10119 -0.277449,0.22487 -0.477666,0.43221 -1.138631,0.66741 -1.875614,0.66741 -1.316558,0 -2.273748,-0.72087 -2.712564,-2.04285 -0.03851,-0.116 -0.06106,-0.4034 -0.05898,-0.75139 0.0031,-0.51454 0.01654,-0.59826 0.154766,-0.96272 0.394705,-1.04076 1.40768,-1.78155 2.44123,-1.78528 0.292977,-0.001 0.317981,-0.0301 0.262968,-0.30488 -0.05863,-0.29291 -0.01789,-0.907 0.08265,-1.24563 0.496341,-1.67184 2.417532,-2.4838 4.000371,-1.6907 0.78797,0.39482 1.31327,1.11084 1.47589,2.01174 0.0573,0.31721 0.0439,0.93731 -0.0237,1.09818 -0.0266,0.0633 -0.001,0.0838 0.12481,0.10137 0.69759,0.0973 0.8933,0.1435 1.19426,0.28207 0.68531,0.31555 1.21876,0.91222 1.45524,1.62773 0.16645,0.50363 0.16645,1.27956 0,1.7832 -0.29134,0.88148 -1.03341,1.57463 -1.93279,1.80536 -0.37053,0.0951 -1.07844,0.0949 -1.45299,-2.7e-4 -0.42074,-0.10694 -0.86178,-0.33504 -1.147219,-0.59332 -0.136688,-0.12368 -0.26154,-0.22488 -0.277449,-0.22488 -0.01591,0 -0.02893,0.36785 -0.02893,0.81744 v 0.81743 l 0.462488,0.0167 c 0.52642,0.019 0.69183,0.0804 0.85205,0.31602 0.21263,0.31273 0.0967,0.81674 -0.22497,0.97788 -0.16671,0.0835 -3.387569,0.0841 -3.55159,8e-4 z"
           id="path10867" /></g><path
         style="fill:#000000;stroke-width:0.00967746"
         d="m 61.132597,318.67107 c -0.06015,-0.0306 -0.08631,-0.12521 -0.05254,-0.19001 0.02791,-0.0536 0.08575,-0.077 0.189848,-0.077 h 0.08548 v -0.16849 c 0,-0.0927 -0.0027,-0.16849 -0.0059,-0.16849 -0.0033,0 -0.02887,0.0208 -0.05689,0.0461 -0.09795,0.0886 -0.233494,0.13683 -0.384624,0.13683 -0.269981,0 -0.466267,-0.14779 -0.556253,-0.41881 -0.0079,-0.0238 -0.01252,-0.0827 -0.0121,-0.15405 6.35e-4,-0.10549 0.0034,-0.12265 0.03174,-0.19737 0.08094,-0.21338 0.288667,-0.36525 0.500612,-0.36602 0.06008,-2e-4 0.06521,-0.006 0.05393,-0.0625 -0.01202,-0.06 -0.0037,-0.18595 0.01695,-0.25537 0.101783,-0.34276 0.495753,-0.50922 0.820338,-0.34662 0.161586,0.0809 0.269307,0.22774 0.302654,0.41243 0.01175,0.065 0.009,0.19217 -0.0049,0.22515 -0.0055,0.013 -2.05e-4,0.0172 0.02559,0.0208 0.143051,0.02 0.183185,0.0294 0.244901,0.0578 0.140534,0.0647 0.249926,0.18702 0.29842,0.33371 0.03413,0.10325 0.03413,0.26233 0,0.36558 -0.05974,0.18072 -0.211917,0.32283 -0.396349,0.37013 -0.07598,0.0195 -0.221151,0.0195 -0.297958,-5e-5 -0.08628,-0.0219 -0.176721,-0.0687 -0.235255,-0.12164 -0.02803,-0.0254 -0.05363,-0.0461 -0.05689,-0.0461 -0.0033,0 -0.0059,0.0754 -0.0059,0.16759 v 0.16759 l 0.09484,0.003 c 0.10795,0.004 0.14187,0.0165 0.174726,0.0648 0.0436,0.0641 0.01983,0.16744 -0.04613,0.20048 -0.03419,0.0171 -0.694674,0.0172 -0.728309,1.6e-4 z"
         id="path10867-0" /><path
         style="fill:#000000;stroke-width:0.00967746"
         d="m 77.154038,334.64366 c 0.06015,0.0306 0.08631,0.12521 0.05254,0.19001 -0.02791,0.0536 -0.08575,0.077 -0.189848,0.077 h -0.08548 v 0.16849 c 0,0.0927 0.0027,0.16849 0.0059,0.16849 0.0033,0 0.02887,-0.0208 0.05689,-0.0461 0.09795,-0.0886 0.233494,-0.13683 0.384624,-0.13683 0.269981,0 0.466267,0.14779 0.556253,0.41881 0.0079,0.0238 0.01252,0.0827 0.0121,0.15405 -6.35e-4,0.10549 -0.0034,0.12265 -0.03174,0.19737 -0.08094,0.21338 -0.288667,0.36525 -0.500612,0.36602 -0.06008,2e-4 -0.06521,0.006 -0.05393,0.0625 0.01202,0.06 0.0037,0.18595 -0.01695,0.25537 -0.101783,0.34276 -0.495753,0.50922 -0.820338,0.34662 -0.161586,-0.0809 -0.269307,-0.22774 -0.302654,-0.41243 -0.01175,-0.065 -0.009,-0.19217 0.0049,-0.22515 0.0055,-0.013 2.05e-4,-0.0172 -0.02559,-0.0208 -0.143051,-0.02 -0.183185,-0.0294 -0.244901,-0.0578 -0.140534,-0.0647 -0.249926,-0.18702 -0.29842,-0.33371 -0.03413,-0.10325 -0.03413,-0.26233 0,-0.36558 0.05974,-0.18072 0.211917,-0.32283 0.396349,-0.37013 0.07598,-0.0195 0.221151,-0.0195 0.297958,5e-5 0.08628,0.0219 0.176721,0.0687 0.235255,0.12164 0.02803,0.0254 0.05363,0.0461 0.05689,0.0461 0.0033,0 0.0059,-0.0754 0.0059,-0.16759 v -0.16759 l -0.09484,-0.003 c -0.10795,-0.004 -0.14187,-0.0165 -0.174726,-0.0648 -0.0436,-0.0641 -0.01983,-0.16744 0.04613,-0.20048 0.03419,-0.0171 0.694674,-0.0172 0.728309,-1.6e-4 z"
         id="path10867-0-7" /></g></g></svg>
