<?xml version="1.0" encoding="UTF-8" standalone="no"?>
<svg
   width="75.324112"
   height="106.67892"
   viewBox="0 0 19.929504 28.225465"
   version="1.1"
   id="svg8"
   inkscape:export-filename="ace-of-spade.png"
   inkscape:export-xdpi="144"
   inkscape:export-ydpi="144"
   inkscape:version="1.2.2 (732a01da63, 2022-12-09)"
   sodipodi:docname="Board_Icones.svg"
   xml:space="preserve"
   xmlns:inkscape="http://www.inkscape.org/namespaces/inkscape"
   xmlns:sodipodi="http://sodipodi.sourceforge.net/DTD/sodipodi-0.dtd"
   xmlns="http://www.w3.org/2000/svg"
   xmlns:svg="http://www.w3.org/2000/svg"
   xmlns:rdf="http://www.w3.org/1999/02/22-rdf-syntax-ns#"
   xmlns:cc="http://creativecommons.org/ns#"
   xmlns:dc="http://purl.org/dc/elements/1.1/"><defs
     id="defs2"><linearGradient
       id="linearGradient27525"
       inkscape:swatch="solid"><stop
         style="stop-color:#000000;stop-opacity:1;"
         offset="0"
         id="stop27523" /></linearGradient><linearGradient
       id="linearGradient3360"
       inkscape:swatch="solid"><stop
         style="stop-color:#000000;stop-opacity:1;"
         offset="0"
         id="stop3358" /></linearGradient></defs><sodipodi:namedview
     id="base"
     pagecolor="#ffffff"
     bordercolor="#666666"
     borderopacity="1.0"
     inkscape:pageopacity="0.0"
     inkscape:pageshadow="2"
     inkscape:zoom="1.2177734"
     inkscape:cx="-1819.7145"
     inkscape:cy="1129.1099"
     inkscape:document-units="px"
     inkscape:current-layer="layer1"
     inkscape:document-rotation="0"
     showgrid="false"
     units="px"
     inkscape:snap-bbox="false"
     inkscape:snap-page="true"
     inkscape:snap-global="false"
     inkscape:window-width="1920"
     inkscape:window-height="986"
     inkscape:window-x="-11"
     inkscape:window-y="-11"
     inkscape:window-maximized="1"
     showborder="false"
     inkscape:pagecheckerboard="0"
     showguides="false"
     inkscape:lockguides="true"
     inkscape:showpageshadow="0"
     inkscape:deskcolor="#d1d1d1"><sodipodi:guide
       position="7.6729164,-186.00209"
       orientation="0,-1"
       id="guide19283"
       inkscape:locked="true" /><sodipodi:guide
       position="7.6729164,-188.84636"
       orientation="1,0"
       id="guide19335"
       inkscape:locked="true" /><sodipodi:guide
       position="-8.0863279,-182.19871"
       orientation="1,0"
       id="guide21083"
       inkscape:locked="true" /><sodipodi:guide
       position="-7.8713539,-181.1073"
       orientation="0,-1"
       id="guide21085"
       inkscape:locked="true" /><sodipodi:guide
       position="-5.6554686,-176.04714"
       orientation="0,-1"
       id="guide21473"
       inkscape:locked="true" /><sodipodi:guide
       position="22.263551,-202.87383"
       orientation="1,0"
       id="guide48855"
       inkscape:locked="true" /><inkscape:grid
       type="xygrid"
       id="grid15247" /></sodipodi:namedview><metadata
     id="metadata5"><rdf:RDF><cc:Work
         rdf:about=""><dc:format>image/svg+xml</dc:format><dc:type
           rdf:resource="http://purl.org/dc/dcmitype/StillImage" /></cc:Work></rdf:RDF></metadata><g
     inkscape:label="Calque 1"
     inkscape:groupmode="layer"
     id="layer1"
     transform="translate(506.0985,-271.84679)"><g
       id="g12190"
       transform="translate(-544.26722,-40.699579)"><g
         id="g11829"><rect
           style="fill:#000000;stroke-width:0.267615"
           id="rect10099-8-2-9-3"
           width="19.929476"
           height="28.225485"
           x="38.168728"
           y="312.54636"
           ry="2.0161057" /><rect
           style="fill:#f2f2f2;stroke-width:0.264583"
           id="rect10099-8"
           width="19.664873"
           height="27.960989"
           x="38.301029"
           y="312.67853"
           ry="1.9972128" /><text
           xml:space="preserve"
           style="font-style:normal;font-variant:normal;font-weight:bold;font-stretch:normal;font-size:3.43466px;font-family:'Century Gothic';-inkscape-font-specification:'Century Gothic, Bold';font-variant-ligatures:normal;font-variant-caps:normal;font-variant-numeric:normal;font-variant-east-asian:normal;fill:#ff0000;stroke-width:0.0352118"
           x="41.65237"
           y="297.77237"
           id="text10177-4"
           transform="scale(0.94280902,1.0606602)"><tspan
             sodipodi:role="line"
             id="tspan10175-4"
             style="fill:#ff0000;stroke-width:0.0352118"
             x="41.65237"
             y="297.77237">A</tspan></text><text
           xml:space="preserve"
           style="font-style:normal;font-variant:normal;font-weight:bold;font-stretch:normal;font-size:3.43466px;font-family:'Century Gothic';-inkscape-font-specification:'Century Gothic, Bold';font-variant-ligatures:normal;font-variant-caps:normal;font-variant-numeric:normal;font-variant-east-asian:normal;fill:#ff0000;stroke-width:0.0352118"
           x="-60.446041"
           y="-318.19617"
           id="text10177-0-4"
           transform="scale(-0.94280902,-1.0606602)"><tspan
             sodipodi:role="line"
             id="tspan10175-1-3"
             style="fill:#ff0000;stroke-width:0.0352118"
             x="-60.446041"
             y="-318.19617">A</tspan></text><path
           style="fill:#ff0000;stroke-width:0.0511807"
           d="m 47.652695,332.11317 c -0.101545,-0.0799 -0.227948,-0.19787 -0.280895,-0.26212 -0.05295,-0.0643 -0.37301,-0.41482 -0.711249,-0.77904 -0.338239,-0.36421 -0.670763,-0.72429 -0.738942,-0.80017 -0.244803,-0.27245 -1.591878,-1.7451 -1.892961,-2.06942 -0.904976,-0.97483 -1.18478,-1.41215 -1.41233,-2.20739 -0.111779,-0.39064 -0.12667,-0.53043 -0.12932,-1.21406 -0.0026,-0.66834 0.01196,-0.82471 0.107841,-1.15888 0.184837,-0.6442 0.383344,-1.01495 0.814775,-1.52175 0.646237,-0.75914 1.248991,-1.04433 2.207229,-1.04433 0.899298,0 1.534354,0.28086 2.135068,0.94425 0.189343,0.2091 0.360658,0.38018 0.380699,0.38018 0.02004,0 0.191357,-0.17108 0.380699,-0.38018 0.375378,-0.41454 0.842536,-0.7177 1.32623,-0.86065 0.375599,-0.11099 1.247162,-0.11004 1.617676,0.002 1.039032,0.31357 1.880076,1.25463 2.217043,2.48071 0.0891,0.32419 0.106131,0.5105 0.105944,1.15888 -1.9e-4,0.65927 -0.01629,0.82867 -0.109781,1.15497 -0.232582,0.81178 -0.519862,1.29181 -1.224299,2.04573 -0.283592,0.30352 -0.912036,0.98643 -1.396542,1.51758 -2.710559,2.97152 -2.486133,2.75923 -2.91697,2.75923 -0.240569,0 -0.329503,-0.0269 -0.479915,-0.14531 z"
           id="path10865" /></g><path
         style="fill:#ff0000;stroke-width:0.010494"
         d="m 40.390991,318.65244 c -0.02082,-0.0164 -0.04674,-0.0406 -0.0576,-0.0537 -0.01086,-0.0132 -0.07649,-0.085 -0.145852,-0.15971 -0.06936,-0.0747 -0.13755,-0.14849 -0.151532,-0.16405 -0.0502,-0.0558 -0.326438,-0.35776 -0.38818,-0.42425 -0.185579,-0.19986 -0.242957,-0.28951 -0.289619,-0.45255 -0.02292,-0.0801 -0.02598,-0.10874 -0.02652,-0.2489 -5.34e-4,-0.13701 0.0025,-0.16907 0.02211,-0.23758 0.0379,-0.13207 0.07861,-0.20808 0.167082,-0.31198 0.132521,-0.15563 0.256124,-0.2141 0.452626,-0.2141 0.184414,0 0.314642,0.0576 0.437827,0.19358 0.03883,0.0429 0.07396,0.0779 0.07807,0.0779 0.0041,0 0.03924,-0.0351 0.07807,-0.0779 0.07698,-0.085 0.172774,-0.14713 0.271963,-0.17644 0.07702,-0.0228 0.255749,-0.0226 0.331729,4.1e-4 0.213069,0.0643 0.385538,0.25721 0.454638,0.50858 0.01827,0.0665 0.02176,0.10466 0.02173,0.23758 -3.9e-5,0.13516 -0.0033,0.16989 -0.02251,0.23679 -0.04769,0.16642 -0.106605,0.26483 -0.251061,0.4194 -0.05815,0.0622 -0.187027,0.20223 -0.286382,0.31112 -0.555841,0.6092 -0.509819,0.56568 -0.598169,0.56568 -0.04933,0 -0.06757,-0.006 -0.09841,-0.0298 z"
         id="path10865-2" /><path
         style="fill:#ff0000;stroke-width:0.010494"
         d="m 55.858347,334.65397 c 0.0208,0.0164 0.04675,0.0406 0.05759,0.0537 0.01085,0.0133 0.07649,0.085 0.145851,0.15971 0.06936,0.0747 0.13755,0.14849 0.151533,0.16405 0.0502,0.0558 0.326435,0.35776 0.388178,0.42425 0.185579,0.19986 0.242958,0.28951 0.28962,0.45255 0.02293,0.0801 0.02598,0.10873 0.02652,0.24891 5.38e-4,0.137 -0.0025,0.16906 -0.02211,0.23757 -0.03787,0.13208 -0.07861,0.20808 -0.167081,0.31198 -0.132524,0.15563 -0.256123,0.2141 -0.452625,0.2141 -0.184406,-3e-5 -0.314643,-0.0576 -0.437819,-0.19361 -0.03883,-0.0429 -0.07396,-0.0779 -0.07808,-0.0779 -0.0041,-7e-5 -0.03925,0.0351 -0.07808,0.0779 -0.07698,0.085 -0.172773,0.14713 -0.271962,0.17644 -0.07703,0.0228 -0.255743,0.0226 -0.331738,-3.8e-4 -0.21306,-0.0643 -0.385539,-0.25721 -0.454639,-0.50857 -0.01827,-0.0665 -0.02175,-0.1047 -0.02173,-0.23758 4.2e-5,-0.13516 0.0033,-0.16989 0.02251,-0.2368 0.0477,-0.16641 0.106604,-0.26482 0.251059,-0.41939 0.05814,-0.0622 0.187028,-0.20223 0.286382,-0.31112 0.555843,-0.6092 0.509821,-0.56568 0.598171,-0.56569 0.04934,-3e-5 0.06757,0.006 0.09849,0.0295 z"
         id="path10865-2-9" /></g></g></svg>
