<?xml version="1.0" encoding="UTF-8" standalone="no"?>
<svg
   width="75.324112"
   height="106.67892"
   viewBox="0 0 19.929504 28.225465"
   version="1.1"
   id="svg8"
   xml:space="preserve"
   xmlns="http://www.w3.org/2000/svg"
   xmlns:svg="http://www.w3.org/2000/svg"
   xmlns:rdf="http://www.w3.org/1999/02/22-rdf-syntax-ns#"
   xmlns:cc="http://creativecommons.org/ns#"
   xmlns:dc="http://purl.org/dc/elements/1.1/"><defs
     id="defs2"><linearGradient
       id="linearGradient27525"><stop
         style="stop-color:#000000;stop-opacity:1;"
         offset="0"
         id="stop27523" /></linearGradient><linearGradient
       id="linearGradient3360"><stop
         style="stop-color:#000000;stop-opacity:1;"
         offset="0"
         id="stop3358" /></linearGradient></defs><metadata
     id="metadata5"><rdf:RDF><cc:Work
         rdf:about=""><dc:format>image/svg+xml</dc:format><dc:type
           rdf:resource="http://purl.org/dc/dcmitype/StillImage" /></cc:Work></rdf:RDF></metadata><g
     id="layer1"
     transform="translate(527.11061,-271.84679)"><g
       id="g22675"><g
         id="g12178"
         transform="translate(-544.26722,-40.699579)"><g
           id="g12166"><rect
             style="fill:#000000;stroke-width:0.267615"
             id="rect10099-8-2-9"
             width="19.929476"
             height="28.225485"
             x="17.156641"
             y="312.54636"
             ry="2.0161057" /><path
             id="rect10099-8-2"
             style="fill:#f2f2f2;stroke-width:0.264583"
             d="m 19.286156,312.6786 h 15.670447 c 1.106456,0 1.997213,0.89076 1.997213,1.99722 v 23.96656 c 0,1.10646 -0.890757,1.99721 -1.997213,1.99721 H 19.286156 c -1.106456,0 -1.997213,-0.89075 -1.997213,-1.99721 v -23.96656 c 0,-1.10646 0.890757,-1.99722 1.997213,-1.99722 z" /><path
             style="fill:#000000;stroke-width:0.0474725"
             d="m 25.345906,332.19923 c -0.29356,-0.15087 -0.42125,-0.61737 -0.25643,-0.93688 0.13621,-0.26407 0.41848,-0.37978 0.92652,-0.37978 h 0.41719 v -0.80702 c 0,-0.44386 -0.0126,-0.80703 -0.028,-0.80703 -0.0154,0 -0.13825,0.0938 -0.27296,0.20854 -0.32327,0.27523 -0.78734,0.5202 -1.18032,0.62305 -0.40804,0.10679 -1.11048,0.077 -1.56033,-0.0663 -0.72965,-0.2323 -1.42172,-0.87577 -1.71664,-1.5961 -0.1732,-0.42302 -0.20171,-0.58186 -0.20024,-1.1156 0.003,-0.98301 0.27866,-1.50732 1.2893,-2.44958 0.33324,-0.3107 1.04507,-0.98147 1.58183,-1.49061 1.54127,-1.46194 2.29162,-2.15869 2.4184,-2.24564 0.15589,-0.10691 0.5588,-0.10691 0.71469,0 0.12678,0.087 0.87713,0.7837 2.41839,2.24564 0.53677,0.50914 1.24859,1.17991 1.58184,1.49061 0.67634,0.63058 1.00313,1.06814 1.17973,1.57961 0.0952,0.27569 0.11145,0.41259 0.10901,0.91744 -0.002,0.52407 -0.0174,0.63055 -0.12746,0.9113 -0.33265,0.84873 -0.95554,1.46309 -1.77636,1.75204 -0.40888,0.14394 -1.15821,0.17586 -1.57135,0.0669 -0.40636,-0.10714 -0.77014,-0.29747 -1.13902,-0.59593 -0.16004,-0.1295 -0.30286,-0.23545 -0.31738,-0.23545 -0.0145,0 -0.0264,0.36116 -0.0264,0.80258 v 0.80258 l 0.46285,0.0169 c 0.52685,0.0193 0.69239,0.0813 0.85273,0.31945 0.21281,0.31614 0.0968,0.82561 -0.22515,0.98851 -0.16684,0.0844 -3.39026,0.085 -3.55441,9.4e-4 z"
             id="path6260-90-3-2-7" /><g
             aria-label="A"
             id="text10177-4-0"
             style="font-weight:bold;font-size:4.04779px;font-family:'Century Gothic';-inkscape-font-specification:'Century Gothic, Bold';stroke-width:0.0414975"
             transform="matrix(0.8,0,0,0.9,-11.173611,28.222025)"><path
               d="m 38.007199,316.66297 h 0.561315 l 1.118676,2.90737 h -0.57515 l -0.227293,-0.59886 h -1.185876 l -0.237175,0.59886 h -0.57515 z m 0.28461,0.77082 -0.387386,0.99811 h 0.772796 z"
               id="path11619" /></g><g
             aria-label="A"
             transform="matrix(-0.8,0,0,-0.9,-7.2047376,32.825836)"
             id="text10177-0-4-5"
             style="font-weight:bold;font-size:4.04779px;font-family:'Century Gothic';-inkscape-font-specification:'Century Gothic, Bold';stroke-width:0.0414975"><path
               d="m -52.759624,-341.43209 h 0.561315 l 1.118676,2.90737 h -0.57515 l -0.227293,-0.59887 h -1.185876 l -0.237175,0.59887 h -0.57515 z m 0.28461,0.77082 -0.387386,0.99811 h 0.772796 z"
               id="path11622" /></g><path
             style="fill:#000000;stroke-width:0.00973518"
             d="m 35.115669,334.65323 c 0.0602,0.0309 0.08639,0.1266 0.05259,0.19213 -0.02793,0.0541 -0.08582,0.0779 -0.190001,0.0779 h -0.08555 v 0.16549 c 0,0.091 0.0026,0.1655 0.0057,0.1655 0.0032,0 0.02835,-0.0192 0.05598,-0.0428 0.06629,-0.0564 0.16146,-0.10667 0.242048,-0.12776 0.08368,-0.0219 0.227726,-0.0158 0.319976,0.0136 0.14963,0.0476 0.291552,0.1796 0.352032,0.32731 0.03552,0.0868 0.04136,0.11933 0.04106,0.22878 -6.15e-4,0.20159 -0.05714,0.30911 -0.264397,0.50233 -0.06834,0.0637 -0.214312,0.20127 -0.324385,0.30568 -0.316068,0.2998 -0.469943,0.44269 -0.495941,0.46052 -0.03197,0.0219 -0.114593,0.0219 -0.146562,0 -0.026,-0.0178 -0.179872,-0.16072 -0.495938,-0.46052 -0.110076,-0.10441 -0.256049,-0.24196 -0.324388,-0.30568 -0.138697,-0.12931 -0.205712,-0.21904 -0.241927,-0.32393 -0.01952,-0.0565 -0.02285,-0.0846 -0.02236,-0.18813 4.1e-4,-0.10748 0.0036,-0.12931 0.02614,-0.18688 0.06822,-0.17405 0.195953,-0.30004 0.364278,-0.3593 0.08385,-0.0295 0.237514,-0.0361 0.322237,-0.0137 0.08333,0.022 0.157932,0.061 0.233578,0.1222 0.03282,0.0266 0.06211,0.0483 0.06508,0.0483 0.003,0 0.0054,-0.0741 0.0054,-0.16459 v -0.16458 l -0.09492,-0.003 c -0.108041,-0.004 -0.141989,-0.0167 -0.174869,-0.0655 -0.04364,-0.0648 -0.01985,-0.16931 0.04617,-0.20271 0.03421,-0.0173 0.69524,-0.0174 0.728902,-2e-4 z"
             id="path6260-90-3-2-7-8-6" /></g><path
           style="fill:#000000;stroke-width:0.00973518"
           d="m 19.115922,318.65729 c -0.0602,-0.0309 -0.08639,-0.1266 -0.05259,-0.19213 0.02793,-0.0541 0.08582,-0.0779 0.190001,-0.0779 h 0.08555 v -0.16549 c 0,-0.091 -0.0026,-0.1655 -0.0057,-0.1655 -0.0032,0 -0.02835,0.0192 -0.05598,0.0428 -0.06629,0.0564 -0.16146,0.10667 -0.242048,0.12776 -0.08368,0.0219 -0.227726,0.0158 -0.319976,-0.0136 -0.14963,-0.0476 -0.291552,-0.1796 -0.352032,-0.32731 -0.03552,-0.0868 -0.04136,-0.11933 -0.04106,-0.22878 6.15e-4,-0.20159 0.05714,-0.30911 0.264397,-0.50233 0.06834,-0.0637 0.214312,-0.20127 0.324385,-0.30568 0.316068,-0.2998 0.469943,-0.44269 0.495941,-0.46052 0.03197,-0.0219 0.114593,-0.0219 0.146562,0 0.026,0.0178 0.179872,0.16072 0.495938,0.46052 0.110076,0.10441 0.256049,0.24196 0.324388,0.30568 0.138697,0.12931 0.205712,0.21904 0.241927,0.32393 0.01952,0.0565 0.02285,0.0846 0.02236,0.18813 -4.1e-4,0.10748 -0.0036,0.12931 -0.02614,0.18688 -0.06822,0.17405 -0.195953,0.30004 -0.364278,0.3593 -0.08385,0.0295 -0.237514,0.0361 -0.322237,0.0137 -0.08333,-0.022 -0.157932,-0.061 -0.233578,-0.1222 -0.03282,-0.0266 -0.06211,-0.0483 -0.06508,-0.0483 -0.003,0 -0.0054,0.0741 -0.0054,0.16459 v 0.16458 l 0.09492,0.003 c 0.108041,0.004 0.141989,0.0167 0.174869,0.0655 0.04364,0.0648 0.01985,0.16931 -0.04617,0.20271 -0.03421,0.0173 -0.69524,0.0174 -0.728902,2e-4 z"
           id="path6260-90-3-2-7-8" /></g></g></g></svg>
