<?xml version="1.0" encoding="UTF-8" standalone="no"?>
<svg
   width="75.323997"
   height="106.67892"
   viewBox="0 0 19.929474 28.225465"
   version="1.1"
   id="svg8"
   inkscape:export-filename="ace-of-spade.png"
   inkscape:export-xdpi="144"
   inkscape:export-ydpi="144"
   inkscape:version="1.2.2 (732a01da63, 2022-12-09)"
   sodipodi:docname="Board_Icones.svg"
   xml:space="preserve"
   xmlns:inkscape="http://www.inkscape.org/namespaces/inkscape"
   xmlns:sodipodi="http://sodipodi.sourceforge.net/DTD/sodipodi-0.dtd"
   xmlns="http://www.w3.org/2000/svg"
   xmlns:svg="http://www.w3.org/2000/svg"
   xmlns:rdf="http://www.w3.org/1999/02/22-rdf-syntax-ns#"
   xmlns:cc="http://creativecommons.org/ns#"
   xmlns:dc="http://purl.org/dc/elements/1.1/"><defs
     id="defs2"><linearGradient
       id="linearGradient27525"
       inkscape:swatch="solid"><stop
         style="stop-color:#000000;stop-opacity:1;"
         offset="0"
         id="stop27523" /></linearGradient><linearGradient
       id="linearGradient3360"
       inkscape:swatch="solid"><stop
         style="stop-color:#000000;stop-opacity:1;"
         offset="0"
         id="stop3358" /></linearGradient></defs><sodipodi:namedview
     id="base"
     pagecolor="#ffffff"
     bordercolor="#666666"
     borderopacity="1.0"
     inkscape:pageopacity="0.0"
     inkscape:pageshadow="2"
     inkscape:zoom="1.2177734"
     inkscape:cx="-1819.7145"
     inkscape:cy="1129.1099"
     inkscape:document-units="px"
     inkscape:current-layer="layer1"
     inkscape:document-rotation="0"
     showgrid="false"
     units="px"
     inkscape:snap-bbox="false"
     inkscape:snap-page="true"
     inkscape:snap-global="false"
     inkscape:window-width="1920"
     inkscape:window-height="986"
     inkscape:window-x="-11"
     inkscape:window-y="-11"
     inkscape:window-maximized="1"
     showborder="false"
     inkscape:pagecheckerboard="0"
     showguides="false"
     inkscape:lockguides="true"
     inkscape:showpageshadow="0"
     inkscape:deskcolor="#d1d1d1"><sodipodi:guide
       position="7.6729164,-186.00209"
       orientation="0,-1"
       id="guide19283"
       inkscape:locked="true" /><sodipodi:guide
       position="7.6729164,-188.84636"
       orientation="1,0"
       id="guide19335"
       inkscape:locked="true" /><sodipodi:guide
       position="-8.0863279,-182.19871"
       orientation="1,0"
       id="guide21083"
       inkscape:locked="true" /><sodipodi:guide
       position="-7.8713539,-181.1073"
       orientation="0,-1"
       id="guide21085"
       inkscape:locked="true" /><sodipodi:guide
       position="-5.6554686,-176.04714"
       orientation="0,-1"
       id="guide21473"
       inkscape:locked="true" /><sodipodi:guide
       position="22.263551,-202.87383"
       orientation="1,0"
       id="guide48855"
       inkscape:locked="true" /><inkscape:grid
       type="xygrid"
       id="grid15247" /></sodipodi:namedview><metadata
     id="metadata5"><rdf:RDF><cc:Work
         rdf:about=""><dc:format>image/svg+xml</dc:format><dc:type
           rdf:resource="http://purl.org/dc/dcmitype/StillImage" /></cc:Work></rdf:RDF></metadata><g
     inkscape:label="Calque 1"
     inkscape:groupmode="layer"
     id="layer1"
     transform="translate(463.64519,-271.84679)"><g
       id="g12214"
       transform="translate(-543.73805,-40.699579)"><g
         id="g11846"><rect
           style="fill:#000000;stroke-width:0.267615"
           id="rect10099-8-2-9-8"
           width="19.929476"
           height="28.225485"
           x="80.092865"
           y="312.54636"
           ry="2.0161057" /><rect
           style="fill:#f2f2f2;stroke-width:0.264583"
           id="rect10099-7"
           width="19.664873"
           height="27.960989"
           x="80.225166"
           y="312.67865"
           ry="1.9972128" /><text
           xml:space="preserve"
           style="font-style:normal;font-variant:normal;font-weight:bold;font-stretch:normal;font-size:3.43466px;font-family:'Century Gothic';-inkscape-font-specification:'Century Gothic, Bold';font-variant-ligatures:normal;font-variant-caps:normal;font-variant-numeric:normal;font-variant-east-asian:normal;fill:#ff0000;stroke-width:0.0352118"
           x="86.119652"
           y="297.77243"
           id="text10177-04"
           transform="scale(0.94280902,1.0606602)"><tspan
             sodipodi:role="line"
             id="tspan10175-3"
             style="fill:#ff0000;stroke-width:0.0352118"
             x="86.119652"
             y="297.77243">A</tspan></text><text
           xml:space="preserve"
           style="font-style:normal;font-variant:normal;font-weight:bold;font-stretch:normal;font-size:3.43466px;font-family:'Century Gothic';-inkscape-font-specification:'Century Gothic, Bold';font-variant-ligatures:normal;font-variant-caps:normal;font-variant-numeric:normal;font-variant-east-asian:normal;fill:#ff0000;stroke-width:0.0352118"
           x="-104.91325"
           y="-318.19626"
           id="text10177-0-6"
           transform="scale(-0.94280902,-1.0606602)"><tspan
             sodipodi:role="line"
             id="tspan10175-1-7"
             style="fill:#ff0000;stroke-width:0.0352118"
             x="-104.91325"
             y="-318.19626">A</tspan></text><path
           style="fill:#ff0000;stroke-width:0.0504045"
           d="m 89.577088,332.17833 c -0.12692,-0.0672 -1.38275,-1.31893 -3.17066,-3.16034 -0.1932,-0.19899 -0.68669,-0.70296 -1.09662,-1.11993 -0.40994,-0.41697 -0.78082,-0.83199 -0.82417,-0.92225 -0.10635,-0.2214 -0.0992,-0.44157 0.021,-0.64664 0.106,-0.18085 0.18601,-0.26678 1.41359,-1.51842 0.43109,-0.43954 0.85383,-0.87321 0.93942,-0.9637 0.0856,-0.0905 0.28277,-0.29147 0.4382,-0.4466 0.15542,-0.15513 0.71009,-0.71792 1.23259,-1.25064 0.64452,-0.65713 1.00752,-0.98969 1.1289,-1.03422 0.23572,-0.0865 0.62302,-0.0773 0.83694,0.0198 0.0966,0.0438 0.69929,0.61614 1.37812,1.30857 0.66356,0.67686 1.75013,1.78244 2.4146,2.45687 0.66447,0.67442 1.25369,1.31084 1.30938,1.41426 0.21674,0.40251 0.12513,0.63717 -0.50076,1.28271 -0.98381,1.0147 -2.25092,2.31007 -2.61019,2.66841 -0.20864,0.20811 -0.69348,0.70241 -1.07743,1.09845 -0.38394,0.39605 -0.77305,0.75985 -0.8647,0.80847 -0.21925,0.11629 -0.75293,0.11916 -0.96819,0.005 z"
           id="path10841-5" /></g><path
         style="fill:#ff0000;stroke-width:0.0103349"
         d="m 97.616218,336.9164 c -0.02603,-0.0138 -0.283554,-0.2704 -0.650191,-0.64792 -0.03962,-0.0408 -0.140816,-0.14412 -0.224878,-0.2296 -0.08406,-0.0855 -0.160119,-0.17057 -0.169009,-0.18908 -0.02181,-0.0454 -0.02034,-0.0905 0.0043,-0.13257 0.02174,-0.0371 0.03814,-0.0547 0.289877,-0.3113 0.0884,-0.0901 0.175091,-0.17902 0.192642,-0.19757 0.01755,-0.0186 0.05799,-0.0598 0.08986,-0.0916 0.03187,-0.0318 0.145614,-0.14719 0.252761,-0.2564 0.132168,-0.13473 0.206606,-0.20291 0.231497,-0.21204 0.04834,-0.0177 0.12776,-0.0158 0.171627,0.004 0.01981,0.009 0.1434,0.12632 0.282604,0.26828 0.136073,0.13877 0.35889,0.36543 0.495149,0.5037 0.13626,0.13826 0.257082,0.26874 0.268502,0.28994 0.0444,0.0825 0.02569,0.13063 -0.102682,0.26298 -0.201745,0.20803 -0.461585,0.4736 -0.535258,0.54706 -0.04279,0.0427 -0.142208,0.14401 -0.220943,0.2252 -0.07873,0.0812 -0.158525,0.15579 -0.17732,0.16575 -0.04496,0.0238 -0.154399,0.0244 -0.198541,10e-4 z"
         id="path10841-5-6" /><path
         style="fill:#ff0000;stroke-width:0.0103349"
         d="m 82.32566,318.6594 c -0.02603,-0.0138 -0.283554,-0.2704 -0.650191,-0.64792 -0.03962,-0.0408 -0.140816,-0.14412 -0.224878,-0.2296 -0.08406,-0.0855 -0.160119,-0.17057 -0.169009,-0.18908 -0.02181,-0.0454 -0.02034,-0.0905 0.0043,-0.13257 0.02174,-0.0371 0.03814,-0.0547 0.289877,-0.3113 0.0884,-0.0901 0.175091,-0.17902 0.192642,-0.19757 0.01755,-0.0186 0.05799,-0.0598 0.08986,-0.0916 0.03187,-0.0318 0.145614,-0.14719 0.252761,-0.2564 0.132168,-0.13473 0.206606,-0.20291 0.231497,-0.21204 0.04834,-0.0177 0.12776,-0.0158 0.171627,0.004 0.01981,0.009 0.1434,0.12632 0.282604,0.26828 0.136073,0.13877 0.35889,0.36543 0.495149,0.5037 0.13626,0.13826 0.257088,0.26874 0.268508,0.28994 0.04445,0.0825 0.02566,0.13063 -0.102688,0.26298 -0.201745,0.20803 -0.461585,0.4736 -0.535258,0.54706 -0.04279,0.0427 -0.142208,0.14401 -0.220943,0.2252 -0.07873,0.0812 -0.158525,0.15579 -0.17732,0.16575 -0.04496,0.0238 -0.154399,0.0244 -0.198541,10e-4 z"
         id="path10841-5-6-9" /></g></g></svg>
