<?xml version="1.0" encoding="UTF-8" standalone="no"?>
<svg
   width="75.323997"
   height="106.67892"
   viewBox="0 0 19.929474 28.225465"
   version="1.1"
   id="svg8"
   inkscape:export-filename="ace-of-spade.png"
   inkscape:export-xdpi="144"
   inkscape:export-ydpi="144"
   inkscape:version="1.2.2 (732a01da63, 2022-12-09)"
   sodipodi:docname="Board_Icones.svg"
   xml:space="preserve"
   xmlns:inkscape="http://www.inkscape.org/namespaces/inkscape"
   xmlns:sodipodi="http://sodipodi.sourceforge.net/DTD/sodipodi-0.dtd"
   xmlns="http://www.w3.org/2000/svg"
   xmlns:svg="http://www.w3.org/2000/svg"
   xmlns:rdf="http://www.w3.org/1999/02/22-rdf-syntax-ns#"
   xmlns:cc="http://creativecommons.org/ns#"
   xmlns:dc="http://purl.org/dc/elements/1.1/"><defs
     id="defs2"><linearGradient
       id="linearGradient27525"
       inkscape:swatch="solid"><stop
         style="stop-color:#000000;stop-opacity:1;"
         offset="0"
         id="stop27523" /></linearGradient><linearGradient
       id="linearGradient3360"
       inkscape:swatch="solid"><stop
         style="stop-color:#000000;stop-opacity:1;"
         offset="0"
         id="stop3358" /></linearGradient></defs><sodipodi:namedview
     id="base"
     pagecolor="#ffffff"
     bordercolor="#666666"
     borderopacity="1.0"
     inkscape:pageopacity="0.0"
     inkscape:pageshadow="2"
     inkscape:zoom="1.7221917"
     inkscape:cx="-1609.8672"
     inkscape:cy="1651.9648"
     inkscape:document-units="px"
     inkscape:current-layer="layer1"
     inkscape:document-rotation="0"
     showgrid="false"
     units="px"
     inkscape:snap-bbox="false"
     inkscape:snap-page="true"
     inkscape:snap-global="false"
     inkscape:window-width="1920"
     inkscape:window-height="986"
     inkscape:window-x="-11"
     inkscape:window-y="-11"
     inkscape:window-maximized="1"
     showborder="false"
     inkscape:pagecheckerboard="0"
     showguides="false"
     inkscape:lockguides="true"
     inkscape:showpageshadow="0"
     inkscape:deskcolor="#d1d1d1"><sodipodi:guide
       position="7.6729164,-186.00209"
       orientation="0,-1"
       id="guide19283"
       inkscape:locked="true" /><sodipodi:guide
       position="7.6729164,-188.84636"
       orientation="1,0"
       id="guide19335"
       inkscape:locked="true" /><sodipodi:guide
       position="-8.0863279,-182.19871"
       orientation="1,0"
       id="guide21083"
       inkscape:locked="true" /><sodipodi:guide
       position="-7.8713539,-181.1073"
       orientation="0,-1"
       id="guide21085"
       inkscape:locked="true" /><sodipodi:guide
       position="-5.6554686,-176.04714"
       orientation="0,-1"
       id="guide21473"
       inkscape:locked="true" /><sodipodi:guide
       position="22.263551,-202.87383"
       orientation="1,0"
       id="guide48855"
       inkscape:locked="true" /><inkscape:grid
       type="xygrid"
       id="grid15247" /></sodipodi:namedview><metadata
     id="metadata5"><rdf:RDF><cc:Work
         rdf:about=""><dc:format>image/svg+xml</dc:format><dc:type
           rdf:resource="http://purl.org/dc/dcmitype/StillImage" /></cc:Work></rdf:RDF></metadata><g
     inkscape:label="Calque 1"
     inkscape:groupmode="layer"
     id="layer1"
     transform="translate(417.05525,-443.09538)"><g
       id="g3967"><g
         id="g4574"
         inkscape:export-filename="black-heart.svg"
         inkscape:export-xdpi="144"
         inkscape:export-ydpi="144"><rect
           style="fill:#f2f2f2;stroke-width:0.267615"
           id="rect10099-8-2-9-3-3"
           width="19.929476"
           height="28.225485"
           x="-417.05527"
           y="443.09537"
           ry="2.0161057" /><rect
           style="fill:#000000;stroke-width:0.264583"
           id="rect10099-8-0"
           width="19.664873"
           height="27.960989"
           x="-416.92297"
           y="443.22754"
           ry="1.9972128"
           inkscape:export-filename=".\black-heart.svg"
           inkscape:export-xdpi="144"
           inkscape:export-ydpi="144" /><text
           xml:space="preserve"
           style="font-style:normal;font-variant:normal;font-weight:bold;font-stretch:normal;font-size:3.43466px;font-family:'Century Gothic';-inkscape-font-specification:'Century Gothic, Bold';font-variant-ligatures:normal;font-variant-caps:normal;font-variant-numeric:normal;font-variant-east-asian:normal;fill:#ff0000;stroke-width:0.0352118"
           x="-441.18561"
           y="420.85516"
           id="text10177-4-2"
           transform="scale(0.94280902,1.0606602)"><tspan
             sodipodi:role="line"
             id="tspan10175-4-2"
             style="fill:#ff0000;stroke-width:0.0352118"
             x="-441.18561"
             y="420.85516">A</tspan></text><text
           xml:space="preserve"
           style="font-style:normal;font-variant:normal;font-weight:bold;font-stretch:normal;font-size:3.43466px;font-family:'Century Gothic';-inkscape-font-specification:'Century Gothic, Bold';font-variant-ligatures:normal;font-variant-caps:normal;font-variant-numeric:normal;font-variant-east-asian:normal;fill:#ff0000;stroke-width:0.0352118"
           x="422.39194"
           y="-441.27896"
           id="text10177-0-4-8"
           transform="scale(-0.94280902,-1.0606602)"><tspan
             sodipodi:role="line"
             id="tspan10175-1-3-6"
             style="fill:#ff0000;stroke-width:0.0352118"
             x="422.39194"
             y="-441.27896">A</tspan></text><path
           style="fill:#ff0000;stroke-width:0.0511807"
           d="m -407.5713,462.66218 c -0.10155,-0.0799 -0.22795,-0.19787 -0.2809,-0.26212 -0.053,-0.0643 -0.37301,-0.41482 -0.71125,-0.77904 -0.33824,-0.36421 -0.67076,-0.72429 -0.73894,-0.80017 -0.2448,-0.27245 -1.59188,-1.7451 -1.89296,-2.06942 -0.90498,-0.97483 -1.18478,-1.41215 -1.41233,-2.20739 -0.11178,-0.39064 -0.12667,-0.53043 -0.12932,-1.21406 -0.003,-0.66834 0.012,-0.82471 0.10784,-1.15888 0.18484,-0.6442 0.38334,-1.01495 0.81477,-1.52175 0.64624,-0.75914 1.249,-1.04433 2.20723,-1.04433 0.8993,0 1.53436,0.28086 2.13507,0.94425 0.18934,0.2091 0.36066,0.38018 0.3807,0.38018 0.02,0 0.19136,-0.17108 0.3807,-0.38018 0.37538,-0.41454 0.84254,-0.7177 1.32623,-0.86065 0.3756,-0.11099 1.24716,-0.11004 1.61768,0.002 1.03903,0.31357 1.88007,1.25463 2.21704,2.48071 0.0891,0.32419 0.10613,0.5105 0.10594,1.15888 -1.9e-4,0.65927 -0.0163,0.82867 -0.10978,1.15497 -0.23258,0.81178 -0.51986,1.29181 -1.2243,2.04573 -0.28359,0.30352 -0.91203,0.98643 -1.39654,1.51758 -2.71056,2.97152 -2.48613,2.75923 -2.91697,2.75923 -0.24057,0 -0.3295,-0.0269 -0.47991,-0.14531 z"
           id="path10865-9" /><path
           style="fill:#ff0000;stroke-width:0.010494"
           d="m -414.83301,449.20145 c -0.0208,-0.0164 -0.0467,-0.0406 -0.0576,-0.0537 -0.0109,-0.0132 -0.0765,-0.085 -0.14585,-0.15971 -0.0694,-0.0747 -0.13755,-0.14849 -0.15153,-0.16405 -0.0502,-0.0558 -0.32644,-0.35776 -0.38818,-0.42425 -0.18558,-0.19986 -0.24296,-0.28951 -0.28962,-0.45255 -0.0229,-0.0801 -0.026,-0.10874 -0.0265,-0.2489 -5.4e-4,-0.13701 0.002,-0.16907 0.0221,-0.23758 0.0379,-0.13207 0.0786,-0.20808 0.16708,-0.31198 0.13252,-0.15563 0.25612,-0.2141 0.45263,-0.2141 0.18441,0 0.31464,0.0576 0.43782,0.19358 0.0388,0.0429 0.074,0.0779 0.0781,0.0779 0.004,0 0.0392,-0.0351 0.0781,-0.0779 0.077,-0.085 0.17278,-0.14713 0.27197,-0.17644 0.077,-0.0228 0.25575,-0.0226 0.33172,4.1e-4 0.21307,0.0643 0.38554,0.25721 0.45464,0.50858 0.0183,0.0665 0.0218,0.10466 0.0217,0.23758 -4e-5,0.13516 -0.003,0.16989 -0.0225,0.23679 -0.0477,0.16642 -0.1066,0.26483 -0.25106,0.4194 -0.0582,0.0622 -0.18702,0.20223 -0.28638,0.31112 -0.55584,0.6092 -0.50982,0.56568 -0.59817,0.56568 -0.0493,0 -0.0676,-0.006 -0.0984,-0.0298 z"
           id="path10865-2-96" /><path
           style="fill:#ff0000;stroke-width:0.010494"
           d="m -399.36565,465.20298 c 0.0208,0.0164 0.0468,0.0406 0.0576,0.0537 0.0109,0.0133 0.0765,0.085 0.14585,0.15971 0.0694,0.0747 0.13755,0.14849 0.15153,0.16405 0.0502,0.0558 0.32644,0.35776 0.38818,0.42425 0.18558,0.19986 0.24296,0.28951 0.28962,0.45255 0.0229,0.0801 0.026,0.10873 0.0265,0.24891 5.4e-4,0.137 -0.002,0.16906 -0.0221,0.23757 -0.0379,0.13208 -0.0786,0.20808 -0.16708,0.31198 -0.13253,0.15563 -0.25612,0.2141 -0.45263,0.2141 -0.1844,-3e-5 -0.31464,-0.0576 -0.43782,-0.19361 -0.0388,-0.0429 -0.074,-0.0779 -0.0781,-0.0779 -0.004,-7e-5 -0.0392,0.0351 -0.0781,0.0779 -0.077,0.085 -0.17277,0.14713 -0.27196,0.17644 -0.077,0.0228 -0.25574,0.0226 -0.33174,-3.8e-4 -0.21306,-0.0643 -0.38553,-0.25721 -0.45463,-0.50857 -0.0183,-0.0665 -0.0217,-0.1047 -0.0217,-0.23758 4e-5,-0.13516 0.003,-0.16989 0.0225,-0.2368 0.0477,-0.16641 0.1066,-0.26482 0.25105,-0.41939 0.0581,-0.0622 0.18703,-0.20223 0.28639,-0.31112 0.55584,-0.6092 0.50982,-0.56568 0.59817,-0.56569 0.0493,-3e-5 0.0676,0.006 0.0985,0.0295 z"
           id="path10865-2-9-4" /></g></g></g></svg>
