<?xml version="1.0" encoding="UTF-8" standalone="no"?>
<svg
   width="75.323997"
   height="106.67892"
   viewBox="0 0 19.929474 28.225465"
   version="1.1"
   id="svg8"
   inkscape:export-filename="ace-of-spade.png"
   inkscape:export-xdpi="144"
   inkscape:export-ydpi="144"
   inkscape:version="1.2.2 (732a01da63, 2022-12-09)"
   sodipodi:docname="Board_Icones.svg"
   xml:space="preserve"
   xmlns:inkscape="http://www.inkscape.org/namespaces/inkscape"
   xmlns:sodipodi="http://sodipodi.sourceforge.net/DTD/sodipodi-0.dtd"
   xmlns="http://www.w3.org/2000/svg"
   xmlns:svg="http://www.w3.org/2000/svg"
   xmlns:rdf="http://www.w3.org/1999/02/22-rdf-syntax-ns#"
   xmlns:cc="http://creativecommons.org/ns#"
   xmlns:dc="http://purl.org/dc/elements/1.1/"><defs
     id="defs2"><linearGradient
       id="linearGradient27525"
       inkscape:swatch="solid"><stop
         style="stop-color:#000000;stop-opacity:1;"
         offset="0"
         id="stop27523" /></linearGradient><linearGradient
       id="linearGradient3360"
       inkscape:swatch="solid"><stop
         style="stop-color:#000000;stop-opacity:1;"
         offset="0"
         id="stop3358" /></linearGradient></defs><sodipodi:namedview
     id="base"
     pagecolor="#ffffff"
     bordercolor="#666666"
     borderopacity="1.0"
     inkscape:pageopacity="0.0"
     inkscape:pageshadow="2"
     inkscape:zoom="0.86109585"
     inkscape:cx="-1936.4859"
     inkscape:cy="1184.5371"
     inkscape:document-units="px"
     inkscape:current-layer="layer1"
     inkscape:document-rotation="0"
     showgrid="false"
     units="px"
     inkscape:snap-bbox="false"
     inkscape:snap-page="true"
     inkscape:snap-global="false"
     inkscape:window-width="1920"
     inkscape:window-height="986"
     inkscape:window-x="-11"
     inkscape:window-y="-11"
     inkscape:window-maximized="1"
     showborder="false"
     inkscape:pagecheckerboard="0"
     showguides="false"
     inkscape:lockguides="true"
     inkscape:showpageshadow="0"
     inkscape:deskcolor="#d1d1d1"><sodipodi:guide
       position="7.6729164,-186.00209"
       orientation="0,-1"
       id="guide19283"
       inkscape:locked="true" /><sodipodi:guide
       position="7.6729164,-188.84636"
       orientation="1,0"
       id="guide19335"
       inkscape:locked="true" /><sodipodi:guide
       position="-8.0863279,-182.19871"
       orientation="1,0"
       id="guide21083"
       inkscape:locked="true" /><sodipodi:guide
       position="-7.8713539,-181.1073"
       orientation="0,-1"
       id="guide21085"
       inkscape:locked="true" /><sodipodi:guide
       position="-5.6554686,-176.04714"
       orientation="0,-1"
       id="guide21473"
       inkscape:locked="true" /><sodipodi:guide
       position="22.263551,-202.87383"
       orientation="1,0"
       id="guide48855"
       inkscape:locked="true" /><inkscape:grid
       type="xygrid"
       id="grid15247" /></sodipodi:namedview><metadata
     id="metadata5"><rdf:RDF><cc:Work
         rdf:about=""><dc:format>image/svg+xml</dc:format><dc:type
           rdf:resource="http://purl.org/dc/dcmitype/StillImage" /></cc:Work></rdf:RDF></metadata><g
     inkscape:label="Calque 1"
     inkscape:groupmode="layer"
     id="layer1"
     transform="translate(438.06737,-443.09538)"><g
       id="g4585"
       inkscape:export-filename="black-spade.svg"
       inkscape:export-xdpi="144"
       inkscape:export-ydpi="144"><rect
         style="fill:#f2f2f2;stroke-width:0.267615"
         id="rect10099-8-2-9-7"
         width="19.929476"
         height="28.225485"
         x="-438.06735"
         y="443.09537"
         ry="2.0161057" /><path
         id="rect10099-8-2-2"
         style="fill:#000000;stroke-width:0.264583"
         d="m -435.93784,443.22761 h 15.67044 c 1.10646,0 1.99722,0.89076 1.99722,1.99722 v 23.96656 c 0,1.10646 -0.89076,1.99721 -1.99722,1.99721 h -15.67044 c -1.10646,0 -1.99722,-0.89075 -1.99722,-1.99721 v -23.96656 c 0,-1.10646 0.89076,-1.99722 1.99722,-1.99722 z" /><path
         style="fill:#f2f2f2;stroke-width:0.0474725"
         d="m -429.87809,462.74824 c -0.29356,-0.15087 -0.42125,-0.61737 -0.25643,-0.93688 0.13621,-0.26407 0.41848,-0.37978 0.92652,-0.37978 h 0.41719 v -0.80702 c 0,-0.44386 -0.0126,-0.80703 -0.028,-0.80703 -0.0154,0 -0.13825,0.0938 -0.27296,0.20854 -0.32327,0.27523 -0.78734,0.5202 -1.18032,0.62305 -0.40804,0.10679 -1.11048,0.077 -1.56033,-0.0663 -0.72965,-0.2323 -1.42172,-0.87577 -1.71664,-1.5961 -0.1732,-0.42302 -0.20171,-0.58186 -0.20024,-1.1156 0.003,-0.98301 0.27866,-1.50732 1.2893,-2.44958 0.33324,-0.3107 1.04507,-0.98147 1.58183,-1.49061 1.54127,-1.46194 2.29162,-2.15869 2.4184,-2.24564 0.15589,-0.10691 0.5588,-0.10691 0.71469,0 0.12678,0.087 0.87713,0.7837 2.41839,2.24564 0.53677,0.50914 1.24859,1.17991 1.58184,1.49061 0.67634,0.63058 1.00313,1.06814 1.17973,1.57961 0.0952,0.27569 0.11145,0.41259 0.10901,0.91744 -0.002,0.52407 -0.0174,0.63055 -0.12746,0.9113 -0.33265,0.84873 -0.95554,1.46309 -1.77636,1.75204 -0.40888,0.14394 -1.15821,0.17586 -1.57135,0.0669 -0.40636,-0.10714 -0.77014,-0.29747 -1.13902,-0.59593 -0.16004,-0.1295 -0.30286,-0.23545 -0.31738,-0.23545 -0.0145,0 -0.0264,0.36116 -0.0264,0.80258 v 0.80258 l 0.46285,0.0169 c 0.52685,0.0193 0.69239,0.0813 0.85273,0.31945 0.21281,0.31614 0.0968,0.82561 -0.22515,0.98851 -0.16684,0.0844 -3.39026,0.085 -3.55441,9.4e-4 z"
         id="path6260-90-3-2-7-84" /><g
         aria-label="A"
         id="text10177-4-0-5"
         style="font-weight:bold;font-size:4.04779px;font-family:'Century Gothic';-inkscape-font-specification:'Century Gothic, Bold';fill:#f2f2f2;stroke-width:0.0414975"
         transform="matrix(0.8,0,0,0.9,-466.39761,158.77103)"><path
           d="m 38.007199,316.66297 h 0.561315 l 1.118676,2.90737 h -0.57515 l -0.227293,-0.59886 h -1.185876 l -0.237175,0.59886 h -0.57515 z m 0.28461,0.77082 -0.387386,0.99811 h 0.772796 z"
           id="path11619-7"
           style="fill:#f2f2f2" /></g><g
         aria-label="A"
         transform="matrix(-0.8,0,0,-0.9,-462.42874,163.37485)"
         id="text10177-0-4-5-1"
         style="font-weight:bold;font-size:4.04779px;font-family:'Century Gothic';-inkscape-font-specification:'Century Gothic, Bold';fill:#f2f2f2;stroke-width:0.0414975"><path
           d="m -52.759624,-341.43209 h 0.561315 l 1.118676,2.90737 h -0.57515 l -0.227293,-0.59887 h -1.185876 l -0.237175,0.59887 h -0.57515 z m 0.28461,0.77082 -0.387386,0.99811 h 0.772796 z"
           id="path11622-4"
           style="fill:#f2f2f2" /></g><path
         style="fill:#f2f2f2;stroke-width:0.00973518"
         d="m -420.10833,465.20224 c 0.0602,0.0309 0.0864,0.1266 0.0526,0.19213 -0.0279,0.0541 -0.0858,0.0779 -0.19,0.0779 h -0.0856 v 0.16549 c 0,0.091 0.003,0.1655 0.006,0.1655 0.003,0 0.0283,-0.0192 0.056,-0.0428 0.0663,-0.0564 0.16146,-0.10667 0.24205,-0.12776 0.0837,-0.0219 0.22772,-0.0158 0.31997,0.0136 0.14963,0.0476 0.29155,0.1796 0.35203,0.32731 0.0355,0.0868 0.0414,0.11933 0.0411,0.22878 -6.1e-4,0.20159 -0.0571,0.30911 -0.26439,0.50233 -0.0683,0.0637 -0.21431,0.20127 -0.32439,0.30568 -0.31607,0.2998 -0.46994,0.44269 -0.49594,0.46052 -0.032,0.0219 -0.11459,0.0219 -0.14656,0 -0.026,-0.0178 -0.17987,-0.16072 -0.49594,-0.46052 -0.11007,-0.10441 -0.25605,-0.24196 -0.32439,-0.30568 -0.13869,-0.12931 -0.20571,-0.21904 -0.24192,-0.32393 -0.0195,-0.0565 -0.0229,-0.0846 -0.0224,-0.18813 4.1e-4,-0.10748 0.004,-0.12931 0.0261,-0.18688 0.0682,-0.17405 0.19595,-0.30004 0.36427,-0.3593 0.0838,-0.0295 0.23752,-0.0361 0.32224,-0.0137 0.0833,0.022 0.15793,0.061 0.23358,0.1222 0.0328,0.0266 0.0621,0.0483 0.0651,0.0483 0.003,0 0.005,-0.0741 0.005,-0.16459 v -0.16458 l -0.0949,-0.003 c -0.10804,-0.004 -0.14199,-0.0167 -0.17487,-0.0655 -0.0436,-0.0648 -0.0199,-0.16931 0.0462,-0.20271 0.0342,-0.0173 0.69524,-0.0174 0.7289,-2e-4 z"
         id="path6260-90-3-2-7-8-6-68" /><path
         style="fill:#f2f2f2;stroke-width:0.00973518"
         d="m -436.10808,449.2063 c -0.0602,-0.0309 -0.0864,-0.1266 -0.0526,-0.19213 0.0279,-0.0541 0.0858,-0.0779 0.19,-0.0779 h 0.0856 v -0.16549 c 0,-0.091 -0.003,-0.1655 -0.006,-0.1655 -0.003,0 -0.0283,0.0192 -0.056,0.0428 -0.0663,0.0564 -0.16146,0.10667 -0.24205,0.12776 -0.0837,0.0219 -0.22772,0.0158 -0.31997,-0.0136 -0.14963,-0.0476 -0.29155,-0.1796 -0.35203,-0.32731 -0.0355,-0.0868 -0.0414,-0.11933 -0.0411,-0.22878 6.1e-4,-0.20159 0.0571,-0.30911 0.26439,-0.50233 0.0683,-0.0637 0.21432,-0.20127 0.32439,-0.30568 0.31607,-0.2998 0.46994,-0.44269 0.49594,-0.46052 0.032,-0.0219 0.11459,-0.0219 0.14656,0 0.026,0.0178 0.17987,0.16072 0.49594,0.46052 0.11008,0.10441 0.25605,0.24196 0.32439,0.30568 0.13869,0.12931 0.20571,0.21904 0.24192,0.32393 0.0195,0.0565 0.0229,0.0846 0.0224,0.18813 -4.2e-4,0.10748 -0.004,0.12931 -0.0262,0.18688 -0.0682,0.17405 -0.19595,0.30004 -0.36427,0.3593 -0.0838,0.0295 -0.23752,0.0361 -0.32224,0.0137 -0.0833,-0.022 -0.15793,-0.061 -0.23358,-0.1222 -0.0328,-0.0266 -0.0621,-0.0483 -0.0651,-0.0483 -0.003,0 -0.005,0.0741 -0.005,0.16459 v 0.16458 l 0.0949,0.003 c 0.10804,0.004 0.14199,0.0167 0.17487,0.0655 0.0436,0.0648 0.0199,0.16931 -0.0462,0.20271 -0.0342,0.0173 -0.69524,0.0174 -0.7289,2e-4 z"
         id="path6260-90-3-2-7-8-11" /></g></g></svg>
