<?xml version="1.0" encoding="UTF-8" standalone="no"?>
<svg
   width="75.323997"
   height="106.67892"
   viewBox="0 0 19.929474 28.225465"
   version="1.1"
   id="svg8"
   inkscape:export-filename="ace-of-spade.png"
   inkscape:export-xdpi="144"
   inkscape:export-ydpi="144"
   inkscape:version="1.2.2 (732a01da63, 2022-12-09)"
   sodipodi:docname="Board_Icones.svg"
   xml:space="preserve"
   xmlns:inkscape="http://www.inkscape.org/namespaces/inkscape"
   xmlns:sodipodi="http://sodipodi.sourceforge.net/DTD/sodipodi-0.dtd"
   xmlns="http://www.w3.org/2000/svg"
   xmlns:svg="http://www.w3.org/2000/svg"
   xmlns:rdf="http://www.w3.org/1999/02/22-rdf-syntax-ns#"
   xmlns:cc="http://creativecommons.org/ns#"
   xmlns:dc="http://purl.org/dc/elements/1.1/"><defs
     id="defs2"><linearGradient
       id="linearGradient27525"
       inkscape:swatch="solid"><stop
         style="stop-color:#000000;stop-opacity:1;"
         offset="0"
         id="stop27523" /></linearGradient><linearGradient
       id="linearGradient3360"
       inkscape:swatch="solid"><stop
         style="stop-color:#000000;stop-opacity:1;"
         offset="0"
         id="stop3358" /></linearGradient></defs><sodipodi:namedview
     id="base"
     pagecolor="#ffffff"
     bordercolor="#666666"
     borderopacity="1.0"
     inkscape:pageopacity="0.0"
     inkscape:pageshadow="2"
     inkscape:zoom="0.86109585"
     inkscape:cx="-1936.4859"
     inkscape:cy="1184.5371"
     inkscape:document-units="px"
     inkscape:current-layer="layer1"
     inkscape:document-rotation="0"
     showgrid="false"
     units="px"
     inkscape:snap-bbox="false"
     inkscape:snap-page="true"
     inkscape:snap-global="false"
     inkscape:window-width="1920"
     inkscape:window-height="986"
     inkscape:window-x="-11"
     inkscape:window-y="-11"
     inkscape:window-maximized="1"
     showborder="false"
     inkscape:pagecheckerboard="0"
     showguides="false"
     inkscape:lockguides="true"
     inkscape:showpageshadow="0"
     inkscape:deskcolor="#d1d1d1"><sodipodi:guide
       position="7.6729164,-186.00209"
       orientation="0,-1"
       id="guide19283"
       inkscape:locked="true" /><sodipodi:guide
       position="7.6729164,-188.84636"
       orientation="1,0"
       id="guide19335"
       inkscape:locked="true" /><sodipodi:guide
       position="-8.0863279,-182.19871"
       orientation="1,0"
       id="guide21083"
       inkscape:locked="true" /><sodipodi:guide
       position="-7.8713539,-181.1073"
       orientation="0,-1"
       id="guide21085"
       inkscape:locked="true" /><sodipodi:guide
       position="-5.6554686,-176.04714"
       orientation="0,-1"
       id="guide21473"
       inkscape:locked="true" /><sodipodi:guide
       position="22.263551,-202.87383"
       orientation="1,0"
       id="guide48855"
       inkscape:locked="true" /><inkscape:grid
       type="xygrid"
       id="grid15247" /></sodipodi:namedview><metadata
     id="metadata5"><rdf:RDF><cc:Work
         rdf:about=""><dc:format>image/svg+xml</dc:format><dc:type
           rdf:resource="http://purl.org/dc/dcmitype/StillImage" /></cc:Work></rdf:RDF></metadata><g
     inkscape:label="Calque 1"
     inkscape:groupmode="layer"
     id="layer1"
     transform="translate(396.03212,-443.09538)"><g
       id="g4596"><rect
         style="fill:#f2f2f2;stroke-width:0.267615"
         id="rect10099-8-2-9-4-7"
         width="19.929476"
         height="28.225485"
         x="-396.03214"
         y="443.09537"
         ry="2.0161057" /><rect
         style="fill:#000000;stroke-width:0.264583"
         id="rect10099-3-0"
         width="19.664873"
         height="27.960989"
         x="-395.89981"
         y="443.22763"
         ry="1.9972128" /><text
         xml:space="preserve"
         style="font-style:normal;font-variant:normal;font-weight:bold;font-stretch:normal;font-size:3.43466px;font-family:'Century Gothic';-inkscape-font-specification:'Century Gothic, Bold';font-variant-ligatures:normal;font-variant-caps:normal;font-variant-numeric:normal;font-variant-east-asian:normal;fill:#f2f2f2;stroke-width:0.0352118"
         x="-418.88718"
         y="420.85522"
         id="text10177-8-1"
         transform="scale(0.94280902,1.0606602)"><tspan
           sodipodi:role="line"
           id="tspan10175-7-3"
           style="fill:#f2f2f2;stroke-width:0.0352118"
           x="-418.88718"
           y="420.85522">A</tspan></text><text
         xml:space="preserve"
         style="font-style:normal;font-variant:normal;font-weight:bold;font-stretch:normal;font-size:3.43466px;font-family:'Century Gothic';-inkscape-font-specification:'Century Gothic, Bold';font-variant-ligatures:normal;font-variant-caps:normal;font-variant-numeric:normal;font-variant-east-asian:normal;fill:#f2f2f2;stroke-width:0.0352118"
         x="400.09357"
         y="-441.27902"
         id="text10177-0-2-8"
         transform="scale(-0.94280902,-1.0606602)"><tspan
           sodipodi:role="line"
           id="tspan10175-1-4-8"
           style="fill:#f2f2f2;stroke-width:0.0352118"
           x="400.09357"
           y="-441.27902">A</tspan></text><path
         style="fill:#f2f2f2;stroke-width:0.0471977"
         d="m -387.84686,462.74879 c -0.29333,-0.14924 -0.42091,-0.61073 -0.25623,-0.92681 0.1361,-0.26123 0.41815,-0.37569 0.92579,-0.37569 h 0.41686 v -0.82184 c 0,-0.45201 -0.013,-0.82183 -0.0289,-0.82183 -0.0159,0 -0.14076,0.10119 -0.27745,0.22487 -0.47767,0.43221 -1.13863,0.66741 -1.87562,0.66741 -1.31655,0 -2.27374,-0.72087 -2.71256,-2.04285 -0.0385,-0.116 -0.0611,-0.4034 -0.059,-0.75139 0.003,-0.51454 0.0165,-0.59826 0.15477,-0.96272 0.3947,-1.04076 1.40768,-1.78155 2.44123,-1.78528 0.29297,-0.001 0.31798,-0.0301 0.26296,-0.30488 -0.0586,-0.29291 -0.0179,-0.907 0.0827,-1.24563 0.49635,-1.67184 2.41754,-2.4838 4.00038,-1.6907 0.78797,0.39482 1.31327,1.11084 1.47589,2.01174 0.0573,0.31721 0.0439,0.93731 -0.0237,1.09818 -0.0266,0.0633 -10e-4,0.0838 0.12481,0.10137 0.69759,0.0973 0.8933,0.1435 1.19426,0.28207 0.68531,0.31555 1.21876,0.91222 1.45524,1.62773 0.16644,0.50363 0.16644,1.27956 0,1.7832 -0.29134,0.88148 -1.03341,1.57463 -1.93279,1.80536 -0.37053,0.0951 -1.07844,0.0949 -1.45299,-2.7e-4 -0.42074,-0.10694 -0.86178,-0.33504 -1.14722,-0.59332 -0.13669,-0.12368 -0.26154,-0.22488 -0.27745,-0.22488 -0.0159,0 -0.0289,0.36785 -0.0289,0.81744 v 0.81743 l 0.46248,0.0167 c 0.52643,0.019 0.69184,0.0804 0.85206,0.31602 0.21263,0.31273 0.0967,0.81674 -0.22497,0.97788 -0.16671,0.0835 -3.38757,0.0841 -3.5516,8e-4 z"
         id="path10867-28" /><path
         style="fill:#f2f2f2;stroke-width:0.00967746"
         d="m -394.0914,449.22008 c -0.0601,-0.0306 -0.0863,-0.12521 -0.0525,-0.19001 0.0279,-0.0536 0.0857,-0.077 0.18985,-0.077 h 0.0855 v -0.16849 c 0,-0.0927 -0.003,-0.16849 -0.006,-0.16849 -0.003,0 -0.0289,0.0208 -0.0569,0.0461 -0.098,0.0886 -0.2335,0.13683 -0.38463,0.13683 -0.26998,0 -0.46627,-0.14779 -0.55625,-0.41881 -0.008,-0.0238 -0.0125,-0.0827 -0.0121,-0.15405 6.3e-4,-0.10549 0.003,-0.12265 0.0317,-0.19737 0.0809,-0.21338 0.28866,-0.36525 0.50061,-0.36602 0.0601,-2e-4 0.0652,-0.006 0.0539,-0.0625 -0.012,-0.06 -0.004,-0.18595 0.0169,-0.25537 0.10178,-0.34276 0.49575,-0.50922 0.82034,-0.34662 0.16158,0.0809 0.26931,0.22774 0.30265,0.41243 0.0118,0.065 0.009,0.19217 -0.005,0.22515 -0.006,0.013 -2e-4,0.0172 0.0256,0.0208 0.14305,0.02 0.18319,0.0294 0.2449,0.0578 0.14054,0.0647 0.24993,0.18702 0.29842,0.33371 0.0341,0.10325 0.0341,0.26233 0,0.36558 -0.0597,0.18072 -0.21191,0.32283 -0.39635,0.37013 -0.076,0.0195 -0.22115,0.0195 -0.29795,-5e-5 -0.0863,-0.0219 -0.17672,-0.0687 -0.23526,-0.12164 -0.028,-0.0254 -0.0536,-0.0461 -0.0569,-0.0461 -0.003,0 -0.006,0.0754 -0.006,0.16759 v 0.16759 l 0.0948,0.003 c 0.10795,0.004 0.14187,0.0165 0.17473,0.0648 0.0436,0.0641 0.0198,0.16744 -0.0461,0.20048 -0.0342,0.0171 -0.69468,0.0172 -0.72831,1.6e-4 z"
         id="path10867-0-3" /><path
         style="fill:#f2f2f2;stroke-width:0.00967746"
         d="m -378.06996,465.19267 c 0.0601,0.0306 0.0863,0.12521 0.0525,0.19001 -0.0279,0.0536 -0.0857,0.077 -0.18985,0.077 h -0.0855 v 0.16849 c 0,0.0927 0.003,0.16849 0.006,0.16849 0.003,0 0.0289,-0.0208 0.0569,-0.0461 0.098,-0.0886 0.23349,-0.13683 0.38462,-0.13683 0.26999,0 0.46627,0.14779 0.55626,0.41881 0.008,0.0238 0.0125,0.0827 0.0121,0.15405 -6.4e-4,0.10549 -0.003,0.12265 -0.0317,0.19737 -0.0809,0.21338 -0.28867,0.36525 -0.50062,0.36602 -0.0601,2e-4 -0.0652,0.006 -0.0539,0.0625 0.012,0.06 0.004,0.18595 -0.017,0.25537 -0.10178,0.34276 -0.49575,0.50922 -0.82033,0.34662 -0.16159,-0.0809 -0.26931,-0.22774 -0.30266,-0.41243 -0.0117,-0.065 -0.009,-0.19217 0.005,-0.22515 0.005,-0.013 2.1e-4,-0.0172 -0.0256,-0.0208 -0.14305,-0.02 -0.18318,-0.0294 -0.2449,-0.0578 -0.14053,-0.0647 -0.24992,-0.18702 -0.29842,-0.33371 -0.0341,-0.10325 -0.0341,-0.26233 0,-0.36558 0.0597,-0.18072 0.21192,-0.32283 0.39635,-0.37013 0.076,-0.0195 0.22115,-0.0195 0.29796,5e-5 0.0863,0.0219 0.17672,0.0687 0.23525,0.12164 0.028,0.0254 0.0536,0.0461 0.0569,0.0461 0.003,0 0.006,-0.0754 0.006,-0.16759 v -0.16759 l -0.0948,-0.003 c -0.10795,-0.004 -0.14187,-0.0165 -0.17472,-0.0648 -0.0436,-0.0641 -0.0198,-0.16744 0.0461,-0.20048 0.0342,-0.0171 0.69467,-0.0172 0.72831,-1.6e-4 z"
         id="path10867-0-7-0" /></g></g></svg>
