<?xml version="1.0" encoding="UTF-8" standalone="no"?>
<svg
   width="90.66922"
   height="89.967178"
   viewBox="0 0 23.989564 23.803817"
   version="1.1"
   id="svg8"
   inkscape:export-filename="ace-of-spade.png"
   inkscape:export-xdpi="144"
   inkscape:export-ydpi="144"
   inkscape:version="1.2.2 (732a01da63, 2022-12-09)"
   sodipodi:docname="Board_Icones.svg"
   xml:space="preserve"
   xmlns:inkscape="http://www.inkscape.org/namespaces/inkscape"
   xmlns:sodipodi="http://sodipodi.sourceforge.net/DTD/sodipodi-0.dtd"
   xmlns="http://www.w3.org/2000/svg"
   xmlns:svg="http://www.w3.org/2000/svg"
   xmlns:rdf="http://www.w3.org/1999/02/22-rdf-syntax-ns#"
   xmlns:cc="http://creativecommons.org/ns#"
   xmlns:dc="http://purl.org/dc/elements/1.1/"><defs
     id="defs2"><linearGradient
       id="linearGradient27525"
       inkscape:swatch="solid"><stop
         style="stop-color:#000000;stop-opacity:1;"
         offset="0"
         id="stop27523" /></linearGradient><linearGradient
       id="linearGradient3360"
       inkscape:swatch="solid"><stop
         style="stop-color:#000000;stop-opacity:1;"
         offset="0"
         id="stop3358" /></linearGradient></defs><sodipodi:namedview
     id="base"
     pagecolor="#ffffff"
     bordercolor="#666666"
     borderopacity="1.0"
     inkscape:pageopacity="0.0"
     inkscape:pageshadow="2"
     inkscape:zoom="1.2177734"
     inkscape:cx="-1819.7145"
     inkscape:cy="1129.1099"
     inkscape:document-units="px"
     inkscape:current-layer="layer1"
     inkscape:document-rotation="0"
     showgrid="false"
     units="px"
     inkscape:snap-bbox="false"
     inkscape:snap-page="true"
     inkscape:snap-global="false"
     inkscape:window-width="1920"
     inkscape:window-height="986"
     inkscape:window-x="-11"
     inkscape:window-y="-11"
     inkscape:window-maximized="1"
     showborder="false"
     inkscape:pagecheckerboard="0"
     showguides="false"
     inkscape:lockguides="true"
     inkscape:showpageshadow="0"
     inkscape:deskcolor="#d1d1d1"><sodipodi:guide
       position="7.6729164,-186.00209"
       orientation="0,-1"
       id="guide19283"
       inkscape:locked="true" /><sodipodi:guide
       position="7.6729164,-188.84636"
       orientation="1,0"
       id="guide19335"
       inkscape:locked="true" /><sodipodi:guide
       position="-8.0863279,-182.19871"
       orientation="1,0"
       id="guide21083"
       inkscape:locked="true" /><sodipodi:guide
       position="-7.8713539,-181.1073"
       orientation="0,-1"
       id="guide21085"
       inkscape:locked="true" /><sodipodi:guide
       position="-5.6554686,-176.04714"
       orientation="0,-1"
       id="guide21473"
       inkscape:locked="true" /><sodipodi:guide
       position="22.263551,-202.87383"
       orientation="1,0"
       id="guide48855"
       inkscape:locked="true" /><inkscape:grid
       type="xygrid"
       id="grid15247" /></sodipodi:namedview><metadata
     id="metadata5"><rdf:RDF><cc:Work
         rdf:about=""><dc:format>image/svg+xml</dc:format><dc:type
           rdf:resource="http://purl.org/dc/dcmitype/StillImage" /></cc:Work></rdf:RDF></metadata><g
     inkscape:label="Calque 1"
     inkscape:groupmode="layer"
     id="layer1"
     transform="translate(561.7004,-210.43163)"><g
       id="g11178"
       transform="translate(-534.40801,-26.941246)"><path
         style="fill:#f2f2f2;stroke-width:0.100841"
         d="m -19.069005,261.04314 c -0.623574,-0.32048 -0.894807,-1.31142 -0.544717,-1.99012 0.28935,-0.56094 0.888952,-0.80673 1.968127,-0.80673 h 0.886198 v -1.71428 c 0,-0.94284 -0.02679,-1.71429 -0.05954,-1.71429 -0.03275,0 -0.293675,0.19925 -0.579832,0.44298 -0.686678,0.58464 -1.672462,1.10501 -2.507226,1.32348 -0.866759,0.22685 -2.358896,0.16357 -3.314455,-0.14083 -1.549932,-0.49345 -3.020019,-1.86031 -3.646501,-3.39044 -0.367899,-0.89858 -0.428464,-1.23599 -0.425352,-2.36976 0.0057,-2.08811 0.591934,-3.20185 2.738734,-5.2034 0.707886,-0.65999 2.21995,-2.08484 3.360142,-3.16635 3.273953,-3.10546 4.867845,-4.58549 5.137149,-4.77019 0.331144,-0.2271 1.187008,-0.2271 1.518151,0 0.269304,0.1848 1.863197,1.66473 5.1371469,4.77019 1.1401989,1.08151 2.6522604,2.50636 3.360144,3.16635 1.4366928,1.33948 2.1308562,2.26895 2.5059837,3.35541 0.2022027,0.58562 0.2367507,0.87643 0.2315698,1.94883 -0.0051,1.11323 -0.037046,1.33941 -0.2707591,1.93578 -0.7066198,1.80288 -2.0297591,3.1079 -3.7733458,3.72169 -0.8685497,0.30576 -2.4602666,0.37356 -3.3378735,0.14211 -0.863191,-0.22759 -1.63593,-0.63189 -2.419499,-1.26588 -0.339955,-0.27508 -0.643334,-0.50014 -0.674177,-0.50014 -0.03084,0 -0.05608,0.76718 -0.05608,1.70484 v 1.70484 l 0.983195,0.0359 c 1.119129,0.041 1.470756,0.1727 1.811361,0.67858 0.452047,0.67154 0.205538,1.75376 -0.478255,2.09979 -0.35441,0.17928 -7.201594,0.18056 -7.550284,0.002 z"
         id="path6260-8" /><g
         id="g11169"><text
           xml:space="preserve"
           style="font-style:normal;font-variant:normal;font-weight:bold;font-stretch:normal;font-size:12.8927px;font-family:'Century Gothic';-inkscape-font-specification:'Century Gothic, Bold';font-variant-ligatures:normal;font-variant-caps:normal;font-variant-numeric:normal;font-variant-east-asian:normal;fill:#000000;stroke-width:1.07439"
           x="-24.113451"
           y="265.84225"
           id="text6392-2-39"
           transform="scale(1.048103,0.95410472)"><tspan
             sodipodi:role="line"
             id="tspan6390-7-2"
             style="font-style:normal;font-variant:normal;font-weight:bold;font-stretch:normal;font-size:12.8927px;font-family:'Century Gothic';-inkscape-font-specification:'Century Gothic, Bold';font-variant-ligatures:normal;font-variant-caps:normal;font-variant-numeric:normal;font-variant-east-asian:normal;stroke-width:1.07439"
             x="-24.113451"
             y="265.84225">C</tspan><tspan
             sodipodi:role="line"
             style="font-style:normal;font-variant:normal;font-weight:bold;font-stretch:normal;font-size:12.8927px;font-family:'Century Gothic';-inkscape-font-specification:'Century Gothic, Bold';font-variant-ligatures:normal;font-variant-caps:normal;font-variant-numeric:normal;font-variant-east-asian:normal;stroke-width:1.07439"
             x="-24.113451"
             y="281.95813"
             id="tspan6394-6-3" /></text><text
           xml:space="preserve"
           style="font-style:normal;font-variant:normal;font-weight:bold;font-stretch:normal;font-size:13.5851px;font-family:'Century Gothic';-inkscape-font-specification:'Century Gothic, Bold';font-variant-ligatures:normal;font-variant-caps:normal;font-variant-numeric:normal;font-variant-east-asian:normal;fill:#000000;stroke-width:0.139274"
           x="-13.294639"
           y="283.92996"
           id="text6480-2"
           transform="scale(1.1196814,0.89311119)"><tspan
             sodipodi:role="line"
             id="tspan6478-1"
             style="stroke-width:0.139274"
             x="-13.294639"
             y="283.92996">B</tspan></text></g></g></g></svg>
